<svg width="18" height="18" viewBox="0 0 18 18" fill="none" xmlns="http://www.w3.org/2000/svg">
<path fill-rule="evenodd" clip-rule="evenodd" d="M9 17C13.4183 17 17 13.4183 17 9C17 4.58172 13.4183 1 9 1C4.58172 1 1 4.58172 1 9C1 13.4183 4.58172 17 9 17ZM9 18C13.9706 18 18 13.9706 18 9C18 4.02944 13.9706 0 9 0C4.02944 0 0 4.02944 0 9C0 13.9706 4.02944 18 9 18Z" fill="black"/>
<path fill-rule="evenodd" clip-rule="evenodd" d="M11.6823 12.3137L12.3137 11.6823L9.78978 9.15842L12.3142 6.634L11.6828 6.00263L9.15842 8.52705L6.63137 6L6 6.63137L8.52705 9.15842L6.00051 11.685L6.63188 12.3163L9.15842 9.78978L11.6823 12.3137Z" fill="black"/>
</svg>
