<svg viewBox="0 0 80 80" fill="none" xmlns="http://www.w3.org/2000/svg">
<path fill-rule="evenodd" clip-rule="evenodd" d="M39.668 47.9987V33.332H41.668V47.9987H39.668Z" fill="#C3A4FE"/>
<path fill-rule="evenodd" clip-rule="evenodd" d="M33.3333 39.6641L48 39.6641L48 41.6641L33.3333 41.6641L33.3333 39.6641Z" fill="#C3A4FE"/>
<path fill-rule="evenodd" clip-rule="evenodd" d="M1.66602 1.66797H27.8968V50.3346H1.66602V1.66797ZM3.66602 3.66797V48.3346H25.8968V3.66797H3.66602Z" fill="#5F0AFF"/>
<path fill-rule="evenodd" clip-rule="evenodd" d="M17.3846 9H12V7H17.3846V9Z" fill="#C3A4FE"/>
<path fill-rule="evenodd" clip-rule="evenodd" d="M14.6667 45.3333C16.1394 45.3333 17.3333 44.1394 17.3333 42.6667C17.3333 41.1939 16.1394 40 14.6667 40C13.1939 40 12 41.1939 12 42.6667C12 44.1394 13.1939 45.3333 14.6667 45.3333Z" fill="#C3A4FE"/>
<path fill-rule="evenodd" clip-rule="evenodd" d="M32 65H78V79H32V65ZM34 67V77H76V67H34Z" fill="#5F0AFF"/>
<path fill-rule="evenodd" clip-rule="evenodd" d="M70.2031 65.9421V47.668H72.2031V65.9421H70.2031Z" fill="#5F0AFF"/>
<path fill-rule="evenodd" clip-rule="evenodd" d="M65.4707 71H71.3014V73H65.4707V71Z" fill="#C3A4FE"/>
<path fill-rule="evenodd" clip-rule="evenodd" d="M51.0469 71H53.5019V73H51.0469V71Z" fill="#C3A4FE"/>
<path fill-rule="evenodd" clip-rule="evenodd" d="M47.3652 71H49.8203V73H47.3652V71Z" fill="#C3A4FE"/>
<path fill-rule="evenodd" clip-rule="evenodd" d="M43.6816 71H46.1367V73H43.6816V71Z" fill="#C3A4FE"/>
<path fill-rule="evenodd" clip-rule="evenodd" d="M40 71H42.455V73H40V71Z" fill="#C3A4FE"/>
<path fill-rule="evenodd" clip-rule="evenodd" d="M71.0461 44.668C69.516 44.668 68.6875 45.617 68.6875 46.3346H66.6875C66.6875 44.1068 68.8664 42.668 71.0461 42.668C73.2259 42.668 75.4047 44.1068 75.4047 46.3346H73.4047C73.4047 45.617 72.5762 44.668 71.0461 44.668Z" fill="#C3A4FE"/>
<path fill-rule="evenodd" clip-rule="evenodd" d="M71.0455 38C68.1375 38 66 40.0542 66 42.3333H64C64 38.7214 67.2758 36 71.0455 36C74.8151 36 78.091 38.7214 78.091 42.3333H76.091C76.091 40.0542 73.9535 38 71.0455 38Z" fill="#C3A4FE"/>
</svg>
