<svg viewBox="0 0 80 80" fill="none" xmlns="http://www.w3.org/2000/svg">
<g>
<path fill-rule="evenodd" clip-rule="evenodd" d="M0.333984 55.1484H80.4188V74.5006H0.333984V55.1484ZM2.33398 57.1484V72.5006H78.4188V57.1484H2.33398Z" fill="#5F0AFF"/>
<path fill-rule="evenodd" clip-rule="evenodd" d="M69.7422 55.5309V18.3477H71.7422V55.5309H69.7422Z" fill="#5F0AFF"/>
<path fill-rule="evenodd" clip-rule="evenodd" d="M58.9688 63.8242H70.7435V65.8242H58.9688V63.8242Z" fill="#C3A4FE"/>
<path fill-rule="evenodd" clip-rule="evenodd" d="M29.8418 63.8242H34.7996V65.8242H29.8418V63.8242Z" fill="#C3A4FE"/>
<path fill-rule="evenodd" clip-rule="evenodd" d="M22.4043 63.8242H27.3621V65.8242H22.4043V63.8242Z" fill="#C3A4FE"/>
<path fill-rule="evenodd" clip-rule="evenodd" d="M14.9688 63.8242H19.9265V65.8242H14.9688V63.8242Z" fill="#C3A4FE"/>
<path fill-rule="evenodd" clip-rule="evenodd" d="M7.53125 63.8242H12.489V65.8242H7.53125V63.8242Z" fill="#C3A4FE"/>
<path fill-rule="evenodd" clip-rule="evenodd" d="M70.7418 12.5312C69.2405 12.5312 68.0234 13.7483 68.0234 15.2496H66.0234C66.0234 12.6437 68.1359 10.5312 70.7418 10.5312C73.3476 10.5312 75.4601 12.6437 75.4601 15.2496H73.4601C73.4601 13.7483 72.2431 12.5312 70.7418 12.5312Z" fill="#C3A4FE"/>
<path fill-rule="evenodd" clip-rule="evenodd" d="M70.7433 6.33203C67.1884 6.33203 64.3066 9.21382 64.3066 12.7687H62.3066C62.3066 8.10925 66.0839 4.33203 70.7433 4.33203C75.4027 4.33203 79.1799 8.10925 79.1799 12.7687H77.1799C77.1799 9.21382 74.2982 6.33203 70.7433 6.33203Z" fill="#C3A4FE"/>
</g>
<defs>
</defs>
</svg>
