<svg width="18" height="18" viewBox="0 0 18 18" fill="none" xmlns="http://www.w3.org/2000/svg">
<path d="M16.3125 8.4375H1.6875V16.3125C1.6875 16.6109 1.80603 16.897 2.017 17.108C2.22798 17.319 2.51413 17.4375 2.8125 17.4375H15.1875C15.4859 17.4375 15.772 17.319 15.983 17.108C16.194 16.897 16.3125 16.6109 16.3125 16.3125V8.4375Z" stroke="#5F0AFF" stroke-linecap="round" stroke-linejoin="round"/>
<path d="M16.3125 5.0625H1.6875C1.38913 5.0625 1.10298 5.18103 0.892005 5.392C0.681026 5.60298 0.5625 5.88913 0.5625 6.1875V7.875C0.5625 8.02418 0.621763 8.16726 0.727252 8.27275C0.832742 8.37824 0.975816 8.4375 1.125 8.4375H16.875C17.0242 8.4375 17.1673 8.37824 17.2727 8.27275C17.3782 8.16726 17.4375 8.02418 17.4375 7.875V6.1875C17.4375 5.88913 17.319 5.60298 17.108 5.392C16.897 5.18103 16.6109 5.0625 16.3125 5.0625Z" stroke="#5F0AFF" stroke-linecap="round" stroke-linejoin="round"/>
<path d="M8.4375 5.0625C5.952 5.0625 3.375 3.048 3.375 0.5625" stroke="#5F0AFF" stroke-linecap="round" stroke-linejoin="round"/>
<path d="M3.375 0.5625C5.8605 0.5625 8.4375 2.577 8.4375 5.0625" stroke="#5F0AFF" stroke-linecap="round" stroke-linejoin="round"/>
<path d="M9.5625 5.0625C12.048 5.0625 14.625 3.048 14.625 0.5625" stroke="#5F0AFF" stroke-linecap="round" stroke-linejoin="round"/>
<path d="M14.625 0.5625C12.1395 0.5625 9.5625 2.577 9.5625 5.0625" stroke="#5F0AFF" stroke-linecap="round" stroke-linejoin="round"/>
<path d="M10.6875 5.0625H7.3125V17.4375H10.6875V5.0625Z" stroke="#5F0AFF" stroke-linecap="round" stroke-linejoin="round"/>
</svg>
