<svg width="18" height="18" viewBox="0 0 18 18" fill="none" xmlns="http://www.w3.org/2000/svg">
<path fill-rule="evenodd" clip-rule="evenodd" d="M9.5 2.5C8.11929 2.5 7 3.61929 7 5C7 6.38071 8.11929 7.5 9.5 7.5C10.8807 7.5 12 6.38071 12 5C12 3.61929 10.8807 2.5 9.5 2.5ZM8 5C8 4.17157 8.67157 3.5 9.5 3.5C10.3284 3.5 11 4.17157 11 5C11 5.82843 10.3284 6.5 9.5 6.5C8.67157 6.5 8 5.82843 8 5Z" fill="black"/>
<path d="M6.83182 10.6138C6.29703 11.2288 6.05693 11.97 6 12.4563V18H5V12.4021L5.00279 12.3758C5.07249 11.7186 5.37888 10.7606 6.07727 9.9576C6.79066 9.13731 7.89657 8.5 9.5 8.5C11.1005 8.5 12.2353 9.13488 12.9642 9.95311C13.6767 10.7528 14 11.7265 14 12.4286V18H13V12.4286C13 11.9878 12.7778 11.2472 12.2176 10.6183C11.6738 10.008 10.8086 9.5 9.5 9.5C8.19434 9.5 7.36085 10.0055 6.83182 10.6138Z" fill="black"/>
</svg>
