<svg viewBox="0 0 80 80" fill="none" xmlns="http://www.w3.org/2000/svg">
<g>
<path fill-rule="evenodd" clip-rule="evenodd" d="M19 0H61V79.037H19V0ZM21 2V77.037H59V2H21Z" fill="#5F0AFF"/>
<path fill-rule="evenodd" clip-rule="evenodd" d="M45.3332 10L34.6665 10V8L45.3332 8V10Z" fill="#C3A4FE"/>
<path fill-rule="evenodd" clip-rule="evenodd" d="M39.9998 69.6667C41.8408 69.6667 43.3332 68.1743 43.3332 66.3333C43.3332 64.4924 41.8408 63 39.9998 63C38.1589 63 36.6665 64.4924 36.6665 66.3333C36.6665 68.1743 38.1589 69.6667 39.9998 69.6667ZM39.9998 71.6667C42.9454 71.6667 45.3332 69.2789 45.3332 66.3333C45.3332 63.3878 42.9454 61 39.9998 61C37.0543 61 34.6665 63.3878 34.6665 66.3333C34.6665 69.2789 37.0543 71.6667 39.9998 71.6667Z" fill="#C3A4FE"/>
</g>
</svg>
