<svg width="140" height="22" viewBox="0 0 140 22" fill="none" xmlns="http://www.w3.org/2000/svg">
<g clip-path="url(#clip0)">
<path d="M10.6865 0V4.63651H9.98034C9.53044 4.61478 9.08925 4.76572 8.7472 5.0584C8.59464 5.20116 8.47499 5.37533 8.39652 5.56886C8.31806 5.76238 8.28265 5.97063 8.29277 6.17918V6.62663H18.5334V21.5568H12.9992V10.9414H8.29277V21.5568H2.7287V10.9414H0V6.62663H2.7287V5.8276C2.7287 4.05198 3.29762 2.63716 4.43547 1.58315C5.57332 0.529136 7.05607 0.0014205 8.88374 0H10.6865Z" fill="black"/>
<path d="M31.4963 6.17908C30.6495 6.16097 29.8089 6.32624 29.0322 6.66353C28.2554 7.00082 27.5611 7.50213 26.9968 8.13297V6.60523H21.4498V21.5503H26.9968V14.3058C26.9968 13.2802 27.218 12.4918 27.6603 11.9406C27.8727 11.6714 28.1456 11.456 28.457 11.3119C28.7685 11.1679 29.1095 11.0993 29.4524 11.1118C29.7391 11.1016 30.0245 11.1547 30.2882 11.2674C30.5518 11.3801 30.7874 11.5496 30.9779 11.7638C31.3756 12.2406 31.581 12.8484 31.5539 13.4684V21.5397H37.1222V12.3029C37.1222 10.4306 36.6088 8.93911 35.5819 7.82828C34.555 6.71745 33.1931 6.16771 31.4963 6.17908Z" fill="black"/>
<path d="M46.6482 6.17922C44.3582 6.17922 42.4296 6.91859 40.8622 8.39733C39.2948 9.87607 38.5125 11.7781 38.5154 14.1035C38.5154 16.409 39.2977 18.3011 40.8622 19.7798C42.4267 21.2585 44.3554 21.9979 46.6482 21.9979C48.4445 21.9979 50.0034 21.5988 51.3247 20.8004C52.663 19.9832 53.6855 18.7382 54.2262 17.2676L49.283 16.2939C48.7894 17.2598 47.9112 17.7428 46.6482 17.7428C46.0108 17.7613 45.389 17.5452 44.9009 17.1355C44.4014 16.6864 44.0596 16.0888 43.9259 15.4309H54.4353V14.4018C54.4154 11.8449 53.685 9.83417 52.2442 8.36963C50.8034 6.90509 48.9381 6.17496 46.6482 6.17922ZM43.9856 12.3925C44.1611 11.8324 44.5137 11.3442 44.9905 11.0011C45.4762 10.6635 46.0565 10.4882 46.6482 10.5004C47.8913 10.5004 48.7005 11.1311 49.076 12.3925H43.9856Z" fill="black"/>
<path d="M83.8046 13.4856L81.2572 6.62669H77.6176L75.0702 13.4856L73.0903 6.62669H62.6876L62.6982 2.41846H61.6763L54.8748 9.78233V10.9415H57.1534V16.0276C57.1534 17.9197 57.6761 19.3885 58.7215 20.434C59.7669 21.4794 61.2567 22.0015 63.1911 22.0001C64.6826 21.9984 66.1498 21.6226 67.458 20.907L66.3507 16.7371C65.7685 17.0498 65.1173 17.2123 64.4562 17.2101C63.2728 17.2101 62.6805 16.6093 62.679 15.4075V10.9329H68.9856L72.3244 21.5569H77.0181L79.4438 14.1951L81.8418 21.5569H86.5504L91.2355 6.62669H85.7866L83.8046 13.4856Z" fill="black"/>
<path d="M99.0652 6.21118C96.7355 6.21118 94.757 6.95055 93.1299 8.42929C91.5028 9.90803 90.6892 11.8001 90.6892 14.1056C90.6892 16.4111 91.5028 18.2982 93.1299 19.767C94.757 21.2358 96.7355 21.9702 99.0652 21.9702C101.394 21.9702 103.372 21.2358 105.001 19.767C106.629 18.2982 107.443 16.4111 107.443 14.1056C107.443 11.8001 106.629 9.90803 105.001 8.42929C103.372 6.95055 101.394 6.21118 99.0652 6.21118ZM101.211 16.4388C100.94 16.7373 100.608 16.9758 100.239 17.1391C99.869 17.3023 99.4693 17.3866 99.0652 17.3866C98.6611 17.3866 98.2615 17.3023 97.8919 17.1391C97.5223 16.9758 97.1909 16.7373 96.9189 16.4388C96.6203 16.1274 96.3865 15.7599 96.2312 15.3575C96.0759 14.9552 96.0022 14.526 96.0144 14.095C95.9889 13.2269 96.3088 12.3842 96.904 11.7511C97.1793 11.453 97.5135 11.215 97.8855 11.0523C98.2574 10.8895 98.6591 10.8055 99.0652 10.8055C99.4713 10.8055 99.873 10.8895 100.245 11.0523C100.617 11.215 100.951 11.453 101.226 11.7511C101.82 12.385 102.139 13.2274 102.114 14.095C102.127 14.5262 102.054 14.9557 101.899 15.3585C101.744 15.7612 101.51 16.1292 101.211 16.4409V16.4388Z" fill="black"/>
<path d="M114.78 9.58835V6.62661H109.233V21.5568H114.78V17.0332C114.78 15.3187 115.207 14.0913 116.06 13.3513C116.914 12.6112 118.138 12.2418 119.732 12.2433H120.617L120.831 6.53712C120.479 6.46951 120.122 6.44022 119.764 6.44976C117.542 6.44976 115.881 7.49596 114.78 9.58835Z" fill="black"/>
<path d="M133.514 13.722L139.437 6.62663H132.896L128.84 11.5636H128.189V0H122.651V21.5568H128.189V16.5879H129.107L133.103 21.5568H140L133.514 13.722Z" fill="black"/>
<path d="M18.5248 0L18.5355 4.63651H12.9757L12.9885 0H18.5248Z" fill="black"/>
</g>
<defs>
<clipPath id="clip0">
<rect width="140" height="22" fill="white"/>
</clipPath>
</defs>
</svg>
