<svg width="140" height="22" viewBox="0 0 140 22" fill="none" xmlns="http://www.w3.org/2000/svg">
<path d="M10.6865 0V4.63651H9.98034C9.53044 4.61478 9.08925 4.76572 8.7472 5.0584C8.59464 5.20116 8.47499 5.37533 8.39652 5.56886C8.31806 5.76238 8.28265 5.97063 8.29277 6.17918V6.62663H18.5334V21.5568H12.9992V10.9414H8.29277V21.5568H2.7287V10.9414H0V6.62663H2.7287V5.8276C2.7287 4.05198 3.29762 2.63716 4.43547 1.58315C5.57332 0.529136 7.05607 0.0014205 8.88374 0H10.6865Z" fill="white"/>
<path d="M31.4957 6.18103C30.6489 6.16292 29.8083 6.32819 29.0316 6.66548C28.2548 7.00278 27.5605 7.50408 26.9962 8.13493V6.60718H21.4492V21.5523H26.9962V14.3077C26.9962 13.2821 27.2174 12.4937 27.6597 11.9426C27.8721 11.6733 28.145 11.4579 28.4564 11.3139C28.7678 11.1699 29.1089 11.1013 29.4518 11.1137C29.7385 11.1035 30.0238 11.1567 30.2875 11.2694C30.5512 11.3821 30.7868 11.5516 30.9773 11.7657C31.375 12.2425 31.5804 12.8503 31.5533 13.4703V21.5416H37.1216V12.3048C37.1216 10.4326 36.6082 8.94106 35.5813 7.83023C34.5544 6.7194 33.1925 6.16967 31.4957 6.18103Z" fill="white"/>
<path d="M46.6482 6.17922C44.3582 6.17922 42.4296 6.91859 40.8622 8.39733C39.2948 9.87607 38.5125 11.7781 38.5154 14.1035C38.5154 16.409 39.2977 18.3011 40.8622 19.7798C42.4267 21.2585 44.3554 21.9979 46.6482 21.9979C48.4445 21.9979 50.0034 21.5988 51.3247 20.8004C52.663 19.9832 53.6855 18.7382 54.2262 17.2676L49.283 16.2939C48.7894 17.2598 47.9112 17.7428 46.6482 17.7428C46.0108 17.7613 45.389 17.5452 44.9009 17.1355C44.4014 16.6864 44.0596 16.0888 43.9259 15.4309H54.4353V14.4018C54.4154 11.8449 53.685 9.83417 52.2442 8.36963C50.8034 6.90509 48.9381 6.17496 46.6482 6.17922ZM43.9856 12.3925C44.1611 11.8324 44.5137 11.3442 44.9905 11.0011C45.4762 10.6635 46.0565 10.4882 46.6482 10.5004C47.8913 10.5004 48.7005 11.1311 49.076 12.3925H43.9856Z" fill="white"/>
<path d="M83.8045 13.4856L81.2572 6.62669H77.6175L75.0701 13.4856L73.0903 6.62669H62.6875L62.6982 2.41846H61.6762L54.8748 9.78233V10.9415H57.1533V16.0276C57.1533 17.9197 57.676 19.3885 58.7214 20.434C59.7668 21.4794 61.2567 22.0015 63.191 22.0001C64.6825 21.9984 66.1498 21.6226 67.4579 20.907L66.3507 16.7371C65.7684 17.0498 65.1172 17.2123 64.4561 17.2101C63.2728 17.2101 62.6804 16.6093 62.679 15.4075V10.9329H68.9855L72.3244 21.5569H77.018L79.4437 14.1951L81.8418 21.5569H86.5503L91.2354 6.62669H85.7865L83.8045 13.4856Z" fill="white"/>
<path d="M99.0652 6.21118C96.7355 6.21118 94.757 6.95055 93.1299 8.42929C91.5028 9.90803 90.6892 11.8001 90.6892 14.1056C90.6892 16.4111 91.5028 18.2982 93.1299 19.767C94.757 21.2358 96.7355 21.9702 99.0652 21.9702C101.394 21.9702 103.372 21.2358 105.001 19.767C106.629 18.2982 107.443 16.4111 107.443 14.1056C107.443 11.8001 106.629 9.90803 105.001 8.42929C103.372 6.95055 101.394 6.21118 99.0652 6.21118ZM101.211 16.4388C100.94 16.7373 100.608 16.9758 100.239 17.1391C99.869 17.3023 99.4693 17.3866 99.0652 17.3866C98.6611 17.3866 98.2615 17.3023 97.8919 17.1391C97.5223 16.9758 97.1909 16.7373 96.9189 16.4388C96.6203 16.1274 96.3865 15.7599 96.2312 15.3575C96.0759 14.9552 96.0022 14.526 96.0144 14.095C95.9889 13.2269 96.3088 12.3842 96.904 11.7511C97.1793 11.453 97.5135 11.215 97.8855 11.0523C98.2574 10.8895 98.6591 10.8055 99.0652 10.8055C99.4713 10.8055 99.873 10.8895 100.245 11.0523C100.617 11.215 100.951 11.453 101.226 11.7511C101.82 12.385 102.139 13.2274 102.114 14.095C102.127 14.5262 102.054 14.9557 101.899 15.3585C101.744 15.7612 101.51 16.1292 101.211 16.4409V16.4388Z" fill="white"/>
<path d="M114.779 9.58957V6.62783H109.232V21.558H114.779V17.0344C114.779 15.3199 115.206 14.0926 116.06 13.3525C116.913 12.6124 118.137 12.2431 119.731 12.2445H120.617L120.83 6.53834C120.479 6.47073 120.121 6.44144 119.763 6.45098C117.542 6.45098 115.88 7.49718 114.779 9.58957Z" fill="white"/>
<path d="M133.514 13.722L139.437 6.62663H132.896L128.84 11.5636H128.189V0H122.651V21.5568H128.189V16.5879H129.106L133.102 21.5568H140L133.514 13.722Z" fill="white"/>
<path d="M18.525 0L18.5356 4.63651H12.9758L12.9886 0H18.525Z" fill="white"/>
</svg>
