<svg width="18" height="18" viewBox="0 0 18 18" fill="none" xmlns="http://www.w3.org/2000/svg">
<g id="ico/18x18/email">
<g id="Group 619">
<path id="Vector" d="M1.74477 15.6021H4.4168V9.1129L0.599609 6.25V14.457C0.599609 15.0906 1.11302 15.6021 1.74477 15.6021Z" fill="black"/>
<path id="Vector_2" d="M13.5781 15.6021H16.2502C16.8838 15.6021 17.3953 15.0887 17.3953 14.457V6.25L13.5781 9.1129" fill="black"/>
<path id="Vector_3" d="M13.5781 4.14841V9.11076L17.3953 6.24786V4.72099C17.3953 3.30481 15.7787 2.49747 14.6469 3.3468" fill="black"/>
<path id="Vector_4" d="M4.41602 9.11079V4.14844L8.99665 7.58391L13.5773 4.14844V9.11079L8.99665 12.5463" fill="black"/>
<path id="Vector_5" d="M0.599609 4.72099V6.24786L4.4168 9.11076V4.14841L3.34799 3.3468C2.21428 2.49747 0.599609 3.30481 0.599609 4.72099Z" fill="black"/>
</g>
</g>
</svg>
