<svg width="32" height="32" viewBox="0 0 32 32" fill="none" xmlns="http://www.w3.org/2000/svg">
<path fill-rule="evenodd" clip-rule="evenodd" d="M16 0C6.98592 0 0 6.60288 0 15.5205C0 20.1853 1.91227 24.2159 5.02535 27.0007C5.15483 27.1157 5.25978 27.2557 5.3339 27.4122C5.40802 27.5688 5.4498 27.7387 5.45674 27.9118L5.54366 30.7577C5.55039 30.9671 5.60838 31.1718 5.71253 31.3537C5.81669 31.5356 5.96385 31.6892 6.14112 31.801C6.3184 31.9128 6.52038 31.9795 6.7294 31.9952C6.93841 32.0108 7.14807 31.975 7.34004 31.8909L10.5143 30.4904C10.7828 30.3715 11.0841 30.3488 11.3674 30.4261C12.8769 30.8384 14.4352 31.0452 16 31.041C25.0141 31.041 32 24.4381 32 15.5205C32 6.60288 25.0141 0 16 0Z" fill="url(#paint0_linear)"/>
<path fill-rule="evenodd" clip-rule="evenodd" d="M6.3932 20.0596L11.0934 12.6036C11.2704 12.3233 11.5035 12.0827 11.778 11.8969C12.0525 11.7111 12.3625 11.5841 12.6884 11.5239C13.0144 11.4637 13.3493 11.4717 13.6721 11.5472C13.9948 11.6228 14.2984 11.7643 14.5638 11.9629L18.3015 14.767C18.4684 14.8919 18.6714 14.9591 18.8799 14.9585C19.0883 14.9579 19.291 14.8896 19.4572 14.7637L24.5051 10.9327C25.1779 10.4208 26.06 11.2289 25.6061 11.9436L20.9091 19.3964C20.7321 19.6767 20.499 19.9173 20.2245 20.1031C19.95 20.2889 19.64 20.4159 19.3141 20.476C18.9881 20.5362 18.6532 20.5283 18.3304 20.4527C18.0077 20.3772 17.7041 20.2356 17.4387 20.037L13.701 17.233C13.5341 17.1081 13.3311 17.0408 13.1226 17.0414C12.9142 17.042 12.7115 17.1104 12.5453 17.2362L7.49421 21.0704C6.82137 21.5823 5.93928 20.7743 6.3932 20.0596Z" fill="white"/>
<defs>
<linearGradient id="paint0_linear" x1="15.9356" y1="-0.149056" x2="15.9356" y2="31.8509" gradientUnits="userSpaceOnUse">
<stop stop-color="#00B2FF"/>
<stop offset="1" stop-color="#006AFF"/>
</linearGradient>
</defs>
</svg>
