<svg width="30" height="30" viewBox="0 0 30 30" fill="none" xmlns="http://www.w3.org/2000/svg">
<path d="M28.344 5.83062e-10H1.644C0.734106 0.00659361 -2.38896e-05 0.746082 5.83062e-10 1.656V28.356C0.00659361 29.2659 0.746082 30 1.656 30H16.026V18.399H12.126V13.857H16.026V10.515C16.026 6.642 18.393 4.53 21.849 4.53C23.0154 4.52503 24.1813 4.58513 25.341 4.71V8.76H22.959C21.078 8.76 20.712 9.66 20.712 10.965V13.857H25.2L24.6 18.399H20.7V30H28.344C29.2586 30 30 29.2586 30 28.344V1.644C29.9934 0.734106 29.2539 -2.38896e-05 28.344 5.83062e-10Z" fill="#4267B2"/>
<path d="M20.7003 29.9996V18.3986H24.6003L25.2003 13.8566H20.7003V10.9646C20.7003 9.65358 21.0663 8.75958 22.9473 8.75958H25.3293V4.70958C24.1695 4.58471 23.0037 4.52461 21.8373 4.52958C18.3813 4.52958 16.0143 6.62958 16.0143 10.5146V13.8566H12.1143V18.3986H16.0143V29.9996H20.7003Z" fill="white"/>
</svg>
