<svg width="18" height="18" viewBox="0 0 18 18" fill="none" xmlns="http://www.w3.org/2000/svg">
<path d="M12.375 4.5H10.125C9.71079 4.5 9.375 4.83579 9.375 5.25V7.5H12.375C12.4603 7.49811 12.5412 7.53779 12.5919 7.60641C12.6426 7.67502 12.6568 7.76401 12.63 7.845L12.075 9.495C12.0239 9.64644 11.8823 9.74881 11.7225 9.75H9.375V15.375C9.375 15.5821 9.20711 15.75 9 15.75H7.125C6.91789 15.75 6.75 15.5821 6.75 15.375V9.75H5.625C5.41789 9.75 5.25 9.58211 5.25 9.375V7.875C5.25 7.66789 5.41789 7.5 5.625 7.5H6.75V5.25C6.75 3.59315 8.09315 2.25 9.75 2.25H12.375C12.5821 2.25 12.75 2.41789 12.75 2.625V4.125C12.75 4.33211 12.5821 4.5 12.375 4.5Z" fill="black"/>
</svg>
