<svg width="18" height="18" viewBox="0 0 18 18" fill="none" xmlns="http://www.w3.org/2000/svg">
<path fill-rule="evenodd" clip-rule="evenodd" d="M12 2.25H6C3.92893 2.25 2.25 3.92893 2.25 6V12C2.25 14.0711 3.92893 15.75 6 15.75H12C14.0711 15.75 15.75 14.0711 15.75 12V6C15.75 3.92893 14.0711 2.25 12 2.25ZM14.4372 12C14.433 13.3445 13.3441 14.4334 11.9997 14.4375H5.99966C4.65518 14.4334 3.56628 13.3445 3.56216 12V6.00004C3.56628 4.65555 4.65518 3.56666 5.99966 3.56254H11.9997C13.3441 3.56666 14.433 4.65555 14.4372 6.00004V12ZM12.5622 6.18754C12.9764 6.18754 13.3122 5.85175 13.3122 5.43754C13.3122 5.02332 12.9764 4.68754 12.5622 4.68754C12.148 4.68754 11.8122 5.02332 11.8122 5.43754C11.8122 5.85175 12.148 6.18754 12.5622 6.18754ZM8.99982 5.62505C7.13586 5.62505 5.62482 7.13609 5.62482 9.00005C5.62482 10.864 7.13586 12.375 8.99982 12.375C10.8638 12.375 12.3748 10.864 12.3748 9.00005C12.3768 8.10433 12.0219 7.24472 11.3885 6.61136C10.7551 5.97799 9.89554 5.62305 8.99982 5.62505ZM6.93721 9.00004C6.93721 10.1391 7.86062 11.0625 8.99971 11.0625C10.1388 11.0625 11.0622 10.1391 11.0622 9.00004C11.0622 7.86095 10.1388 6.93754 8.99971 6.93754C7.86062 6.93754 6.93721 7.86095 6.93721 9.00004Z" fill="black"/>
</svg>
