<svg width="18" height="18" viewBox="0 0 18 18" fill="none" xmlns="http://www.w3.org/2000/svg">
<path fill-rule="evenodd" clip-rule="evenodd" d="M2.625 3.75C2.625 2.92157 3.29657 2.25 4.125 2.25C4.52282 2.25 4.90436 2.40804 5.18566 2.68934C5.46696 2.97064 5.625 3.35218 5.625 3.75C5.625 4.57843 4.95343 5.25 4.125 5.25C3.29657 5.25 2.625 4.57843 2.625 3.75ZM15.7499 10.0575C15.7758 8.43371 14.668 7.01075 13.0874 6.63753C12.0282 6.40946 10.9242 6.70853 10.1249 7.44003V7.12503C10.1249 6.91792 9.95703 6.75003 9.74992 6.75003H7.87492C7.66782 6.75003 7.49992 6.91792 7.49992 7.12503V14.625C7.49992 14.8321 7.66782 15 7.87492 15H9.74992C9.95703 15 10.1249 14.8321 10.1249 14.625V10.395C10.1064 9.64182 10.6314 8.98404 11.3699 8.83503C11.8097 8.75912 12.2604 8.88296 12.5997 9.17291C12.9389 9.46286 13.1314 9.88881 13.1249 10.335V14.625C13.1249 14.8321 13.2928 15 13.4999 15H15.3749C15.582 15 15.7499 14.8321 15.7499 14.625V10.0575ZM5.62506 7.12504V14.625C5.62506 14.8321 5.45717 15 5.25006 15H3.37506C3.16796 15 3.00006 14.8321 3.00006 14.625V7.12504C3.00006 6.91793 3.16796 6.75004 3.37506 6.75004H5.25006C5.45717 6.75004 5.62506 6.91793 5.62506 7.12504Z" fill="black"/>
</svg>
