<svg width="18" height="18" viewBox="0 0 18 18" fill="none" xmlns="http://www.w3.org/2000/svg">
<g id="ico/18x18/telegram_nuevo">
<path id="Exclude" fill-rule="evenodd" clip-rule="evenodd" d="M9.03031 16.7598C13.3186 16.7598 16.795 13.2835 16.795 8.99515C16.795 4.70683 13.3186 1.23047 9.03031 1.23047C4.74199 1.23047 1.26562 4.70683 1.26562 8.99515C1.26562 13.2835 4.74199 16.7598 9.03031 16.7598ZM12 6.98208C11.8595 7.63328 10.9848 10.1162 10.746 10.7691C10.6968 10.9033 10.6381 11.0776 10.5738 11.2686C10.3921 11.8083 10.1655 12.481 9.98443 12.7569C9.51799 13.4136 9.03099 12.5448 8.82445 12.0348C8.33745 11.0659 8.23706 10.6967 8.00591 10.4499C7.76069 10.1882 7.36832 10.0644 6.21117 9.50896C5.45906 9.22301 5.13178 8.67229 5.80456 8.31142C6.06246 8.18668 7.09241 7.83225 7.68396 7.62869C7.84793 7.57226 7.97821 7.52743 8.04904 7.50229C8.1322 7.47277 8.32009 7.40411 8.56645 7.31407C9.28678 7.05081 10.5069 6.60489 11.0703 6.42087C11.8264 6.17392 12.1588 6.2458 12 6.98208Z" fill="black"/>
</g>
</svg>
