<svg width="32" height="25" viewBox="0 0 32 25" fill="none" xmlns="http://www.w3.org/2000/svg">
<path d="M10.0634 24.9808C22.1389 24.9808 28.7437 15.3906 28.7437 7.07403C28.7437 6.80164 28.7437 6.53047 28.7245 6.26054C30.0094 5.36963 31.1185 4.26652 32 3.00287C30.8018 3.51183 29.5307 3.8456 28.2291 3.99305C29.5997 3.20652 30.6254 1.96946 31.1155 0.512068C29.8268 1.24514 28.4168 1.76178 26.9466 2.03968C24.9115 -0.0346878 21.6777 -0.542395 19.0586 0.801246C16.4395 2.14489 15.0864 5.00572 15.7581 7.77955C10.4792 7.52587 5.56093 5.13578 2.2272 1.20409C0.484637 4.07973 1.3747 7.75852 4.25984 9.60532C3.21503 9.57564 2.193 9.30546 1.28 8.81759C1.28 8.84336 1.28 8.87035 1.28 8.89734C1.28086 11.8932 3.48384 14.4735 6.5472 15.0667C5.58063 15.3194 4.5665 15.3563 3.58272 15.1746C4.44281 17.7384 6.90762 19.4946 9.71648 19.5452C7.39166 21.2966 4.51976 22.2474 1.56288 22.2446C1.04052 22.2436 0.518661 22.2133 0 22.1538C3.00241 24.0008 6.49589 24.9804 10.0634 24.9759" fill="#1DA1F2"/>
</svg>
