<svg width="18" height="18" viewBox="0 0 18 18" fill="none" xmlns="http://www.w3.org/2000/svg">
<path d="M16.4781 4.84784C16.091 5.3641 15.6232 5.81444 15.0926 6.18146C15.0926 6.31633 15.0926 6.45119 15.0926 6.59354C15.0969 9.0426 14.1186 11.3909 12.3772 13.1121C10.6357 14.8332 8.27675 15.7832 5.82909 15.7491C4.41404 15.7538 3.01711 15.4307 1.74773 14.8051C1.67928 14.7752 1.63513 14.7075 1.6354 14.6328V14.5503C1.6354 14.4428 1.72257 14.3555 1.8301 14.3555C3.22106 14.3097 4.5624 13.8274 5.66433 12.977C4.40532 12.9516 3.27253 12.2058 2.75122 11.0589C2.72488 10.9963 2.73308 10.9245 2.77285 10.8694C2.81262 10.8143 2.87821 10.7839 2.94592 10.7892C3.32856 10.8277 3.71503 10.7921 4.08421 10.6843C2.69437 10.3958 1.65006 9.24199 1.5006 7.82977C1.49529 7.76202 1.52565 7.6964 1.58071 7.65661C1.63577 7.61683 1.70758 7.60862 1.77019 7.63497C2.14317 7.79954 2.54579 7.88622 2.95341 7.8897C1.73558 7.09038 1.20956 5.57004 1.67284 4.18852C1.72066 4.05427 1.83555 3.9551 1.97529 3.92745C2.11503 3.89979 2.25901 3.94773 2.35431 4.05366C3.9977 5.80271 6.25574 6.84497 8.65234 6.96066C8.59095 6.7157 8.56076 6.46397 8.56247 6.21143C8.58489 4.88727 9.4042 3.70768 10.6368 3.2249C11.8695 2.74212 13.2715 3.0517 14.1865 4.0087C14.8102 3.88988 15.4132 3.68037 15.9763 3.38684C16.0176 3.36109 16.0699 3.36109 16.1111 3.38684C16.1369 3.42811 16.1369 3.48044 16.1111 3.5217C15.8384 4.14626 15.3776 4.6701 14.7931 5.02016C15.305 4.9608 15.8078 4.84006 16.2908 4.66053C16.3315 4.63285 16.385 4.63285 16.4256 4.66053C16.4597 4.67612 16.4852 4.70593 16.4953 4.74202C16.5054 4.77811 16.4991 4.81682 16.4781 4.84784Z" fill="black"/>
</svg>
