<svg width="18" height="18" viewBox="0 0 18 18" fill="none" xmlns="http://www.w3.org/2000/svg">
<g id="ico/18x18/whatsapp">
<path id="Vector" d="M9.30069 2.39844C5.49482 2.39844 2.40099 5.49517 2.40099 9.29844C2.40099 10.5653 2.74597 11.799 3.40282 12.8754L2.41478 15.8369C2.38166 15.9362 2.40651 16.0439 2.48102 16.1184C2.53345 16.1708 2.60521 16.1984 2.67697 16.1984C2.70733 16.1984 2.73494 16.1957 2.76529 16.1846L5.72388 15.1993C6.803 15.8534 8.03666 16.1984 9.30069 16.1984C13.1066 16.1984 16.2004 13.1045 16.2004 9.29844C16.2004 5.49517 13.1066 2.39844 9.30069 2.39844ZM13.7165 12.0916C13.7165 12.3317 13.6171 12.569 13.446 12.7402L12.7285 13.4495C12.5573 13.6206 12.3255 13.7144 12.0882 13.7144H12.0523C8.19674 13.5488 5.05046 10.4024 4.88488 6.54949C4.87384 6.29832 4.97043 6.04991 5.14983 5.87052L5.85912 5.15291C6.03024 4.98179 6.26758 4.88244 6.51045 4.88244H6.77539C7.15349 4.88244 7.49848 5.11979 7.63096 5.47584L8.26021 7.14564C8.38164 7.47132 8.30714 7.84391 8.06703 8.09784L7.8076 8.37108C7.68891 8.49528 7.67511 8.68573 7.77172 8.82649C8.09186 9.29017 8.7763 10.1651 9.77538 10.8385C9.91337 10.9296 10.1011 10.913 10.2225 10.7971L10.504 10.5322C10.7552 10.292 11.1277 10.2175 11.4534 10.339L13.1231 10.9682C13.4792 11.1035 13.7165 11.4457 13.7165 11.8238V12.0916Z" fill="black"/>
</g>
</svg>
