<svg width="18" height="18" viewBox="0 0 18 18" fill="none" xmlns="http://www.w3.org/2000/svg">
<path fill-rule="evenodd" clip-rule="evenodd" d="M13.9053 3.25311L15.0003 3.36561C16.2967 3.51213 17.2701 4.61865 17.2503 5.92311V12.0731C17.2701 13.3776 16.2967 14.4841 15.0003 14.6306L13.9503 14.7431C10.674 15.0806 7.37163 15.0806 4.0953 14.7431L3.0003 14.6306C1.70394 14.4841 0.730464 13.3776 0.750298 12.0731V5.92311C0.730464 4.61865 1.70394 3.51213 3.0003 3.36561L4.0503 3.25311C7.32663 2.91563 10.629 2.91563 13.9053 3.25311ZM8.3328 11.413L11.2503 9.46301H11.2953C11.4525 9.36058 11.5473 9.18565 11.5473 8.99801C11.5473 8.81038 11.4525 8.63544 11.2953 8.53301L8.3778 6.58301C8.20555 6.46658 7.98312 6.45466 7.79942 6.55201C7.61571 6.64936 7.50068 6.8401 7.5003 7.04801V10.948C7.50997 11.1416 7.6186 11.3165 7.7878 11.411C7.95699 11.5055 8.16292 11.5063 8.3328 11.413Z" fill="black"/>
</svg>
